<svg width="62" height="62" viewBox="0 0 62 62" fill="none" xmlns="http://www.w3.org/2000/svg">
<path d="M43.538 60.7014C44.2041 61.5825 45.4584 61.7567 46.3395 61.0905L60.6973 50.2345C61.5784 49.5683 61.7526 48.314 61.0864 47.433C60.4202 46.5519 59.1659 46.3777 58.2849 47.0439L45.5224 56.6937L35.8726 43.9312C35.2064 43.0501 33.9521 42.8759 33.071 43.5421C32.19 44.2083 32.0158 45.4625 32.6819 46.3436L43.538 60.7014ZM3.57179e-05 3.9912C12.7638 4.84202 21.7214 8.74474 28.034 13.9941C34.3611 19.2556 38.1679 25.9844 40.425 32.6953C42.6849 39.4147 43.3711 46.0603 43.4853 51.0488C43.5423 53.5373 43.4567 55.5984 43.3578 57.0301C43.3083 57.7457 43.2556 58.3029 43.2159 58.6766C43.196 58.8634 43.1794 59.0042 43.1682 59.0959C43.1625 59.1417 43.1582 59.1752 43.1555 59.1961C43.1541 59.2065 43.1531 59.2137 43.1526 59.2178C43.1523 59.2198 43.1522 59.221 43.1521 59.2214C43.1521 59.2215 43.1521 59.2212 43.1521 59.2213C43.1522 59.2208 43.1523 59.2201 45.1333 59.4952C47.1143 59.7703 47.1144 59.7692 47.1146 59.7678C47.1147 59.7671 47.1149 59.7656 47.1151 59.7641C47.1155 59.7612 47.116 59.7575 47.1166 59.753C47.1179 59.7439 47.1195 59.7316 47.1215 59.716C47.1256 59.6849 47.1313 59.6409 47.1382 59.5845C47.1521 59.4716 47.1712 59.3088 47.1935 59.0992C47.238 58.6802 47.2952 58.0738 47.3482 57.306C47.4543 55.771 47.5445 53.5859 47.4843 50.9572C47.3641 45.7114 46.644 38.6383 44.2163 31.4202C41.7858 24.1937 37.6238 16.7664 30.5915 10.9186C23.5447 5.05867 13.7523 0.899035 0.266082 5.55558e-05L3.57179e-05 3.9912Z" fill="#23A6F0"/>
</svg>
