<svg width="30" height="30" viewBox="0 0 30 30" fill="none" xmlns="http://www.w3.org/2000/svg">
<path d="M25.4619 25.4624H21.0342V18.5282C21.0342 16.8747 21.0047 14.7461 18.7313 14.7461C16.4252 14.7461 16.0723 16.5477 16.0723 18.4078V25.4619H11.6447V11.2024H15.8952V13.1512H15.9547C16.3801 12.4238 16.9948 11.8254 17.7334 11.4198C18.4719 11.0142 19.3066 10.8165 20.1487 10.8477C24.6364 10.8477 25.4638 13.7996 25.4638 17.6398L25.4619 25.4624V25.4624ZM6.64856 9.25337C5.22946 9.25361 4.07883 8.10334 4.0786 6.68423C4.07837 5.26513 5.22852 4.11451 6.64763 4.11427C8.06673 4.11392 9.21735 5.26419 9.21759 6.6833C9.21771 7.36478 8.94712 8.0184 8.46534 8.50038C7.98355 8.98236 7.33004 9.25322 6.64856 9.25337V9.25337ZM8.86249 25.4625H4.43008V11.2024H8.86237V25.4624L8.86249 25.4625ZM27.6693 0.00217493H2.20517C1.00167 -0.0113659 0.0147082 0.952719 0 2.15622V27.7266C0.0142412 28.9307 1.00109 29.8957 2.20506 29.8831H27.6693C28.8759 29.898 29.8666 28.933 29.8833 27.7266V2.15424C29.8661 0.9484 28.8753 -0.0155683 27.6693 0.000190493" fill="#0A66C2"/>
</svg>
